<svg width="14" height="25" viewBox="0 0 14 25" fill="none" xmlns="http://www.w3.org/2000/svg">
<path d="M4.50503 8.49999V17.4906C4.51541 18.1481 4.78387 18.775 5.25246 19.2363C5.72105 19.6975 6.3522 19.9561 7.00972 19.9561C7.66723 19.9561 8.29838 19.6975 8.76697 19.2363C9.23556 18.775 9.50402 18.1481 9.5144 17.4906L9.52253 5.70624C9.52935 5.14432 9.42456 4.58664 9.21424 4.06552C9.00392 3.5444 8.69225 3.07021 8.2973 2.67044C7.90235 2.27068 7.43198 1.95328 6.91345 1.73665C6.39492 1.52002 5.83855 1.40848 5.27659 1.40848C4.71463 1.40848 4.15826 1.52002 3.63973 1.73665C3.1212 1.95328 2.65083 2.27068 2.25588 2.67044C1.86093 3.07021 1.54926 3.5444 1.33894 4.06552C1.12862 4.58664 1.02384 5.14432 1.03065 5.70624V17.57C1.01921 18.3611 1.16513 19.1466 1.45995 19.8808C1.75477 20.615 2.1926 21.2832 2.74799 21.8467C3.30337 22.4102 3.96523 22.8576 4.69509 23.1631C5.42494 23.4685 6.20823 23.6257 6.9994 23.6257C7.79058 23.6257 8.57387 23.4685 9.30372 23.1631C10.0336 22.8576 10.6954 22.4102 11.2508 21.8467C11.8062 21.2832 12.244 20.615 12.5389 19.8808C12.8337 19.1466 12.9796 18.3611 12.9682 17.57V6.48374" stroke="black" stroke-width="2" stroke-miterlimit="10" stroke-linecap="round"/>
</svg>
