<svg width="194" height="28" viewBox="0 0 194 28" fill="none" xmlns="http://www.w3.org/2000/svg">
<path d="M0.536 0.599998H9.048C10.392 1.048 11.5333 1.88 12.472 3.096C13.432 4.29067 13.912 5.76267 13.912 7.512C13.912 10.3707 12.7813 12.472 10.52 13.816L13.752 23H9.272L6.552 14.84H4.856V23H0.536V0.599998ZM4.856 4.44V11.256H7.608C7.97067 11.1707 8.36533 10.808 8.792 10.168C9.24 9.50667 9.464 8.73867 9.464 7.864C9.464 6.98933 9.272 6.22133 8.888 5.56C8.52533 4.89867 8.16267 4.52533 7.8 4.44H4.856ZM22.643 10.008H20.243C19.923 10.392 19.6563 10.9253 19.443 11.608C19.251 12.2907 19.155 12.952 19.155 13.592H23.731C23.7737 12.952 23.6883 12.2907 23.475 11.608C23.2617 10.904 22.9843 10.3707 22.643 10.008ZM26.995 19.64V23H18.867C17.3737 21.9973 16.3177 20.76 15.699 19.288C15.1017 17.7947 14.803 16.2907 14.803 14.776C14.803 11.2773 16.1257 8.568 18.771 6.648H23.955C25.3843 7.69333 26.355 8.80267 26.867 9.976C27.379 11.1493 27.635 12.3333 27.635 13.528C27.635 14.7227 27.539 15.7467 27.347 16.6H19.379C19.443 17.0907 19.6243 17.656 19.923 18.296C20.243 18.9147 20.5843 19.3627 20.947 19.64H26.995ZM42.1663 6.648V21.304C42.1663 22.9253 41.9529 24.2267 41.5263 25.208C41.1209 26.1893 40.2996 27.0533 39.0623 27.8H31.7663V24.472H37.2383C37.7716 24.152 38.0383 23.64 38.0383 22.936V21.048C37.2489 21.7093 35.9903 22.04 34.2623 22.04H31.9263C30.1983 19.9707 29.3343 17.5707 29.3343 14.84C29.3343 12.8773 29.6116 11.2773 30.1663 10.04C30.7209 8.78133 31.5316 7.65067 32.5983 6.648H34.9663C36.3529 6.648 37.4516 7.096 38.2623 7.992L38.8383 6.648H42.1663ZM37.9103 10.008H34.8063C34.0383 11.3307 33.6543 12.856 33.6543 14.584C33.6543 16.2907 33.9849 17.6987 34.6463 18.808H37.9103V10.008ZM44.7823 23V6.648H49.0063V23H44.7823ZM44.7823 0.599998H49.0063V4.92H44.7823V0.599998ZM53.351 6.648H60.423V10.008H55.431L58.471 14.52C59.8363 16.4613 60.5937 17.7947 60.743 18.52C60.8283 18.8613 60.871 19.2133 60.871 19.576C60.871 21.0907 60.3057 22.232 59.175 23H51.015V19.64H56.871L53.447 14.616C53.2977 14.3813 53.063 14.0507 52.743 13.624C52.4443 13.1973 52.2097 12.856 52.039 12.6C51.8683 12.3227 51.751 12.12 51.687 11.992C51.623 11.864 51.5377 11.704 51.431 11.512C51.3243 11.2987 51.2497 11.1173 51.207 10.968C51.1217 10.5627 51.079 10.232 51.079 9.976C51.079 8.41867 51.8363 7.30933 53.351 6.648ZM63.8985 15.864V10.008H61.6905V6.648H63.8985V2.2H68.1545V6.648H70.7785V10.008H68.1545V16.888C68.1545 18.1893 68.3785 19.1067 68.8265 19.64H70.7785V23H66.2345C65.1038 21.9547 64.4212 20.824 64.1865 19.608C63.9945 18.584 63.8985 17.336 63.8985 15.864ZM79.9868 10.008H77.5868C77.2668 10.392 77.0001 10.9253 76.7868 11.608C76.5948 12.2907 76.4988 12.952 76.4988 13.592H81.0748C81.1174 12.952 81.0321 12.2907 80.8188 11.608C80.6054 10.904 80.3281 10.3707 79.9868 10.008ZM84.3388 19.64V23H76.2108C74.7174 21.9973 73.6614 20.76 73.0428 19.288C72.4454 17.7947 72.1468 16.2907 72.1468 14.776C72.1468 11.2773 73.4694 8.568 76.1148 6.648H81.2988C82.7281 7.69333 83.6988 8.80267 84.2108 9.976C84.7228 11.1493 84.9788 12.3333 84.9788 13.528C84.9788 14.7227 84.8828 15.7467 84.6908 16.6H76.7228C76.7868 17.0907 76.9681 17.656 77.2668 18.296C77.5868 18.9147 77.9281 19.3627 78.2908 19.64H84.3388ZM87.158 23V6.648H90.198L90.998 8.376C91.8513 7.224 92.9287 6.648 94.23 6.648H95.478V10.936H91.414V23H87.158ZM112.167 23H105.191C103.057 21.016 101.991 18.3067 101.991 14.872C101.991 13.144 102.225 11.64 102.695 10.36C103.185 9.08 103.953 7.84267 104.999 6.648H112.487C113.596 7.928 114.353 9.176 114.759 10.392C115.164 11.5867 115.367 13.08 115.367 14.872C115.367 18.3067 114.3 21.016 112.167 23ZM107.463 19.64H109.895C110.663 18.1467 111.047 16.4507 111.047 14.552C111.047 12.6533 110.652 11.1387 109.863 10.008H107.463C106.695 11.096 106.311 12.6427 106.311 14.648C106.311 16.632 106.695 18.296 107.463 19.64ZM121.945 0.599998H126.553V3.96H123.673C122.948 4.408 122.585 5.304 122.585 6.648H125.913V10.008H122.585V23H118.329V10.008H116.569V6.648H118.329C118.329 3.87467 119.535 1.85867 121.945 0.599998ZM132.689 23V6.648H136.913V23H132.689ZM132.689 0.599998H136.913V4.92H132.689V0.599998ZM152.041 23H148.809L148.233 21.848C147.764 22.2747 147.316 22.5733 146.889 22.744C146.484 22.9147 145.865 23 145.033 23H142.249C141.311 22.104 140.564 20.9307 140.009 19.48C139.476 18.0293 139.209 16.408 139.209 14.616C139.209 12.8027 139.476 11.2667 140.009 10.008C140.564 8.74933 141.343 7.62933 142.345 6.648H145.097C146.228 6.648 147.124 6.94667 147.785 7.544V0.599998H152.041V23ZM147.785 10.008H144.713C143.924 11.352 143.529 13.0053 143.529 14.968C143.529 16.9093 143.913 18.4667 144.681 19.64H147.785V10.008ZM162.174 10.008H159.774C159.454 10.392 159.188 10.9253 158.974 11.608C158.782 12.2907 158.686 12.952 158.686 13.592H163.262C163.305 12.952 163.22 12.2907 163.006 11.608C162.793 10.904 162.516 10.3707 162.174 10.008ZM166.526 19.64V23H158.398C156.905 21.9973 155.849 20.76 155.23 19.288C154.633 17.7947 154.334 16.2907 154.334 14.776C154.334 11.2773 155.657 8.568 158.302 6.648H163.486C164.916 7.69333 165.886 8.80267 166.398 9.976C166.91 11.1493 167.166 12.3333 167.166 13.528C167.166 14.7227 167.07 15.7467 166.878 16.6H158.91C158.974 17.0907 159.156 17.656 159.454 18.296C159.774 18.9147 160.116 19.3627 160.478 19.64H166.526ZM177.026 15.608H173.602C173.154 16.1627 172.93 16.856 172.93 17.688C172.93 18.52 173.164 19.1707 173.634 19.64H177.026V15.608ZM170.146 6.648H178.082C179.362 7.416 180.204 8.30133 180.61 9.304C181.015 10.2853 181.218 11.6293 181.218 13.336V18.136C181.218 19.9067 181.26 21.528 181.346 23H177.698L177.122 21.848C176.29 22.616 175.116 23 173.602 23H171.586C169.772 21.8053 168.866 20.088 168.866 17.848C168.866 15.5867 169.794 13.8053 171.65 12.504H174.658C175.49 12.504 176.268 12.76 176.994 13.272V11.672C176.994 10.84 176.631 10.2853 175.906 10.008H170.146V6.648ZM185.57 6.648H192.642V10.008H187.65L190.69 14.52C192.055 16.4613 192.812 17.7947 192.962 18.52C193.047 18.8613 193.09 19.2133 193.09 19.576C193.09 21.0907 192.524 22.232 191.394 23H183.234V19.64H189.09L185.666 14.616C185.516 14.3813 185.282 14.0507 184.962 13.624C184.663 13.1973 184.428 12.856 184.258 12.6C184.087 12.3227 183.97 12.12 183.906 11.992C183.842 11.864 183.756 11.704 183.65 11.512C183.543 11.2987 183.468 11.1173 183.426 10.968C183.34 10.5627 183.298 10.232 183.298 9.976C183.298 8.41867 184.055 7.30933 185.57 6.648Z" fill="#3054AE"/>
</svg>
